<svg
  width="21"
  height="15"
  viewBox="0 0 21 15"
  xmlns="http://www.w3.org/2000/svg"
>
  <path
    d="M18.705 14.324a2.6 2.6 0 0 0 1.857-1.84c.397-1.493.435-4.458.438-5V7.31c-.003-.543-.04-3.507-.438-5.001A2.639 2.639 0 0 0 18.705.44C17.249.048 11.899.005 10.727 0h-.454C9.102.005 3.75.048 2.295.441A2.639 2.639 0 0 0 .438 2.31C.041 3.804.003 6.768 0 7.31v.173c.003.542.04 3.507.438 5a2.6 2.6 0 0 0 1.857 1.84c1.456.392 6.807.436 7.978.44h.454c1.171-.004 6.522-.048 7.978-.44zM8.352 10.52V4.275l5.489 3.122-5.489 3.123z"
    fill="currentColor"
    fill-rule="nonzero"
  />
</svg>
