<svg width="30" height="24" viewBox="0 0 30 24" fill="none" xmlns="http://www.w3.org/2000/svg">
<path d="M8.44 0.839996L12.84 4.36C10.28 5.72 7.32 9.08 6.6 11.96C6.84 11.8 7.56 11.72 8.2 11.72C11.24 11.72 13.64 14.04 13.64 17.48C13.64 20.92 10.76 23.8 7.32 23.8C3.56 23.8 0.2 20.84 0.2 15.64C0.2 9.64 3.48 4.28 8.44 0.839996ZM24.68 0.839996L29.16 4.36C26.6 5.72 23.56 9.08 22.92 11.96C23.16 11.8 23.88 11.72 24.52 11.72C27.48 11.72 29.88 14.04 29.88 17.48C29.88 20.92 27.08 23.8 23.56 23.8C19.8 23.8 16.52 20.84 16.52 15.64C16.52 9.64 19.72 4.28 24.68 0.839996Z" fill="url(#paint0_linear_811_2358)"/>
<defs>
<linearGradient id="paint0_linear_811_2358" x1="15.5" y1="-16" x2="15.5" y2="27" gradientUnits="userSpaceOnUse">
<stop stop-color="#F89A1C"/>
<stop offset="1" stop-color="#F6BE3E"/>
</linearGradient>
</defs>
</svg>
