<svg width="18" height="16" viewBox="0 0 18 16" fill="none" xmlns="http://www.w3.org/2000/svg">
<path d="M1.35 15.2C0.99 15.2 0.675 15.065 0.405 14.795C0.135 14.525 0 14.21 0 13.85V2.14999C0 1.78999 0.135 1.47499 0.405 1.20499C0.675 0.934988 0.99 0.799988 1.35 0.799988H16.65C17.01 0.799988 17.325 0.934988 17.595 1.20499C17.865 1.47499 18 1.78999 18 2.14999V13.85C18 14.21 17.865 14.525 17.595 14.795C17.325 15.065 17.01 15.2 16.65 15.2H1.35ZM9 8.40499L1.35 3.38749V13.85H16.65V3.38749L9 8.40499ZM9 7.05499L16.56 2.14999H1.4625L9 7.05499ZM1.35 3.38749V2.14999V13.85V3.38749Z" fill="#F6BE3E"/>
</svg>
