<svg width="110" height="110" viewBox="0 0 110 110" fill="none" xmlns="http://www.w3.org/2000/svg">
<g id="Vector" filter="url(#filter0_d_918_15094)">
<path d="M46.5125 69.875L69.875 55L46.5125 40.125V69.875ZM55 90C50.2167 90 45.6958 89.0813 41.4375 87.2438C37.1792 85.4063 33.4604 82.8979 30.2813 79.7187C27.1021 76.5396 24.5937 72.8208 22.7562 68.5625C20.9187 64.3042 20 59.7833 20 55C20 50.1583 20.9187 45.6083 22.7562 41.35C24.5937 37.0917 27.1021 33.3875 30.2813 30.2375C33.4604 27.0875 37.1792 24.5937 41.4375 22.7562C45.6958 20.9187 50.2167 20 55 20C59.8417 20 64.3917 20.9187 68.65 22.7562C72.9083 24.5937 76.6125 27.0875 79.7625 30.2375C82.9125 33.3875 85.4063 37.0917 87.2438 41.35C89.0813 45.6083 90 50.1583 90 55C90 59.7833 89.0813 64.3042 87.2438 68.5625C85.4063 72.8208 82.9125 76.5396 79.7625 79.7187C76.6125 82.8979 72.9083 85.4063 68.65 87.2438C64.3917 89.0813 59.8417 90 55 90ZM55 84.75C63.2833 84.75 70.3125 81.8479 76.0875 76.0437C81.8625 70.2396 84.75 63.225 84.75 55C84.75 46.7167 81.8625 39.6875 76.0875 33.9125C70.3125 28.1375 63.2833 25.25 55 25.25C46.775 25.25 39.7604 28.1375 33.9563 33.9125C28.1521 39.6875 25.25 46.7167 25.25 55C25.25 63.225 28.1521 70.2396 33.9563 76.0437C39.7604 81.8479 46.775 84.75 55 84.75Z" fill="white"/>
</g>
<defs>
<filter id="filter0_d_918_15094" x="0" y="0" width="110" height="110" filterUnits="userSpaceOnUse" color-interpolation-filters="sRGB">
<feFlood flood-opacity="0" result="BackgroundImageFix"/>
<feColorMatrix in="SourceAlpha" type="matrix" values="0 0 0 0 0 0 0 0 0 0 0 0 0 0 0 0 0 0 127 0" result="hardAlpha"/>
<feOffset/>
<feGaussianBlur stdDeviation="10"/>
<feComposite in2="hardAlpha" operator="out"/>
<feColorMatrix type="matrix" values="0 0 0 0 0 0 0 0 0 0 0 0 0 0 0 0 0 0 0.25 0"/>
<feBlend mode="normal" in2="BackgroundImageFix" result="effect1_dropShadow_918_15094"/>
<feBlend mode="normal" in="SourceGraphic" in2="effect1_dropShadow_918_15094" result="shape"/>
</filter>
</defs>
</svg>
