<svg width="24" height="24" viewBox="0 0 24 24" fill="none" xmlns="http://www.w3.org/2000/svg">
<g clip-path="url(#clip0_788_15941)">
<path d="M22.2283 0H1.77167C0.793333 0 0 0.793333 0 1.77167V22.2283C0 23.2067 0.793333 24 1.77167 24H22.2283C23.2067 24 24 23.2067 24 22.2283V1.77167C24 0.793333 23.2067 0 22.2283 0ZM7.15333 20.4467H3.545V8.98333H7.15333V20.445V20.4467ZM5.35 7.39667C4.20167 7.39667 3.27 6.52167 3.27 5.325C3.27 4.12833 4.20167 3.25333 5.35 3.25333C6.49833 3.25333 7.43 4.12833 7.43 5.325C7.43 6.52167 6.49833 7.39667 5.35 7.39667ZM20.4567 20.4567H16.8483V14.1967C16.8483 12.35 16.0633 11.78 15.05 11.78C13.98 11.78 12.93 12.585 12.93 14.2433V20.4583H9.32167V8.99167H12.7917V10.58H12.8383C13.1867 9.875 14.4067 8.67 16.2683 8.67C18.2817 8.67 20.4567 9.865 20.4567 13.365V20.455V20.4567Z" fill="#F6BE3E"/>
</g>
<defs>
<clipPath id="clip0_788_15941">
<rect width="24" height="24" fill="white"/>
</clipPath>
</defs>
</svg>
